<svg xmlns="http://www.w3.org/2000/svg" width="479" height="428" viewBox="0 0 479 428" font-family="Helvetica, Arial, sans-serif" font-size="14">
<defs><marker id="arrow" viewBox="0 0 10 10" refX="8.5" refY="5" markerWidth="7" markerHeight="7" orient="auto"><path d="M 0 1 L 9 5 L 0 9 z" fill="#44507a"/></marker></defs>
<rect width="479" height="428" fill="#ffffff"/>
<path d="M 157.6 66.0 C 157.6 111.9, 169.3 84.1, 169.3 130.0" fill="none" stroke="#44507a" stroke-width="1.7" marker-end="url(#arrow)"/>
<path d="M 182.9 168.0 C 182.9 219.9, 182.9 180.1, 182.9 232.0" fill="none" stroke="#44507a" stroke-width="1.7" marker-end="url(#arrow)"/>
<path d="M 182.9 296.6 C 182.9 348.5, 182.9 308.7, 182.9 360.6" fill="none" stroke="#44507a" stroke-width="1.7" marker-end="url(#arrow)"/>
<path d="M 157.1 248.3 C 110.1 248.3, 156.1 218.6, 109.2 218.6" fill="none" stroke="#44507a" stroke-width="1.7" marker-end="url(#arrow)"/>
<path d="M 117.7 180.6 C 164.7 180.6, 96.7 168.0, 143.7 168.0" fill="none" stroke="#44507a" stroke-width="1.7" marker-end="url(#arrow)"/>
<path d="M 240.0 377.6 C 348.0 377.6, 286.4 372.2, 394.4 372.2" fill="none" stroke="#44507a" stroke-width="3.4" marker-end="url(#arrow)"/>
<rect x="107.0" y="28.0" width="74.0" height="38.0" rx="19.0" fill="#eef1fb" stroke="#5b6dc0" stroke-width="1.6"/>
<text x="144.0" y="47.0" dy="0.33em" text-anchor="middle" fill="#232840">Start</text>
<rect x="133.0" y="130.0" width="99.7" height="38.0" rx="3.0" fill="#eef1fb" stroke="#5b6dc0" stroke-width="1.6"/>
<text x="182.9" y="149.0" dy="0.33em" text-anchor="middle" fill="#232840">Read input</text>
<polygon points="182.9,232.0 234.0,264.3 182.9,296.6 131.8,264.3" fill="#eef1fb" stroke="#5b6dc0" stroke-width="1.6"/>
<text x="182.9" y="264.3" dy="0.33em" text-anchor="middle" fill="#232840">Valid?</text>
<rect x="125.8" y="360.6" width="114.2" height="38.0" rx="3.0" fill="#eef1fb" stroke="#5b6dc0" stroke-width="1.6"/>
<text x="182.9" y="379.6" dy="0.33em" text-anchor="middle" fill="#232840">Process data</text>
<rect x="28.0" y="180.6" width="101.0" height="38.0" rx="3.0" fill="#eef1fb" stroke="#5b6dc0" stroke-width="1.6"/>
<text x="78.5" y="199.6" dy="0.33em" text-anchor="middle" fill="#232840">Show error</text>
<circle cx="422.9" cy="371.2" r="28.6" fill="#eef1fb" stroke="#5b6dc0" stroke-width="1.6"/>
<text x="422.9" y="371.2" dy="0.33em" text-anchor="middle" fill="#232840">Done</text>
<rect x="165.0" y="318.6" width="35.8" height="20" rx="4" fill="#ffffff" stroke="#d5d9ec"/>
<text x="182.9" y="328.6" dy="0.33em" text-anchor="middle" fill="#232840">yes</text>
<rect x="118.3" y="223.5" width="29.6" height="20" rx="4" fill="#ffffff" stroke="#d5d9ec"/>
<text x="133.1" y="233.5" dy="0.33em" text-anchor="middle" fill="#232840">no</text>
</svg>
